<svg xmlns="http://www.w3.org/2000/svg" xmlns:xlink="http://www.w3.org/1999/xlink" width="500" zoomAndPan="magnify" viewBox="0 0 375 374.999991" height="500" preserveAspectRatio="xMidYMid meet" version="1.0"><defs><g/><clipPath id="d7d0b9dabb"><path d="M 157 90.8125 L 236.59375 90.8125 L 236.59375 183 L 157 183 Z M 157 90.8125 " clip-rule="nonzero"/></clipPath><clipPath id="fc1f23e563"><path d="M 126.34375 149 L 235 149 L 235 225.8125 L 126.34375 225.8125 Z M 126.34375 149 " clip-rule="nonzero"/></clipPath></defs><g clip-path="url(#d7d0b9dabb)"><path fill="#cae8ff" d="M 235.191406 142.335938 C 235.136719 142.335938 235.136719 142.335938 235.082031 142.390625 C 232.800781 142.988281 230.414062 143.042969 228.078125 142.5 C 225.6875 141.957031 223.519531 140.871094 221.507812 139.515625 C 217.546875 136.90625 214.289062 133.433594 210.867188 130.230469 C 207.5 127.082031 203.808594 124.09375 199.300781 122.738281 C 195.011719 121.433594 190.34375 121.707031 186.21875 123.441406 C 182.472656 125.019531 179.269531 127.839844 177.152344 131.316406 C 178.128906 130.828125 179.160156 130.5 180.191406 130.339844 C 181.65625 130.121094 183.230469 130.230469 184.699219 130.609375 C 184.859375 130.664062 184.96875 130.773438 185.023438 130.882812 C 185.078125 131.042969 185.078125 131.261719 184.914062 131.371094 C 184.859375 131.425781 184.804688 131.480469 184.699219 131.480469 C 181.332031 132.457031 178.238281 134.246094 175.683594 136.691406 C 172.917969 139.296875 170.851562 142.5 169.496094 146.03125 C 168.84375 147.710938 168.410156 149.449219 168.136719 151.242188 C 169.765625 149.449219 171.667969 147.984375 173.839844 146.898438 C 174.054688 146.789062 174.273438 146.953125 174.382812 147.113281 C 174.492188 147.277344 174.492188 147.441406 174.328125 147.605469 C 170.691406 151.1875 168.085938 155.695312 166.507812 160.527344 C 164.988281 165.140625 164.335938 169.972656 164.445312 174.804688 C 164.5 177.246094 164.71875 179.636719 165.152344 182.027344 C 165.207031 182.132812 165.207031 182.242188 165.152344 182.351562 C 165.097656 182.515625 164.878906 182.625 164.664062 182.570312 C 164.664062 182.570312 164.664062 182.570312 164.609375 182.570312 C 164.5 182.515625 164.390625 182.460938 164.285156 182.296875 C 161.949219 177.464844 160.265625 172.308594 159.125 167.09375 C 158.472656 164.21875 158.039062 161.339844 157.875 158.410156 C 157.714844 155.421875 157.824219 152.4375 158.148438 149.449219 C 158.800781 143.367188 160.375 137.34375 162.871094 131.75 C 165.097656 126.648438 168.191406 121.921875 171.992188 117.851562 C 175.628906 113.941406 179.867188 110.574219 184.535156 108.078125 C 185.132812 107.753906 185.675781 107.480469 186.273438 107.210938 C 186 102.8125 186.976562 98.359375 188.988281 94.449219 C 189.585938 93.257812 190.289062 92.117188 191.105469 91.03125 C 191.265625 90.8125 191.539062 90.8125 191.703125 91.03125 C 191.863281 91.03125 191.972656 91.140625 192.027344 91.300781 C 193.277344 94.886719 195.503906 98.140625 198.433594 100.585938 C 199.195312 101.238281 200.0625 101.835938 200.929688 102.378906 C 201.691406 102.214844 202.507812 102.214844 203.265625 102.433594 C 203.265625 98.414062 205.167969 94.449219 208.371094 92.0625 C 208.371094 92.0625 208.371094 92.0625 208.425781 92.0625 C 208.585938 91.734375 209.128906 91.679688 209.183594 92.117188 C 210.433594 97.003906 212.171875 101.78125 214.449219 106.230469 C 215.101562 107.480469 215.753906 108.675781 216.460938 109.871094 C 216.460938 109.871094 216.515625 109.925781 216.515625 109.925781 C 221.019531 114.320312 225.796875 119.046875 227.101562 125.453125 C 227.425781 127.082031 227.480469 128.765625 227.265625 130.394531 C 228.296875 132.238281 229.597656 133.976562 231.226562 135.386719 C 232.097656 136.148438 233.019531 136.800781 233.996094 137.398438 C 234.917969 137.941406 235.898438 138.644531 236.222656 139.675781 C 236.546875 140.652344 236.332031 141.738281 235.460938 142.28125 C 235.355469 142.28125 235.300781 142.28125 235.191406 142.335938 Z M 235.191406 142.335938 " fill-opacity="1" fill-rule="nonzero"/></g><g clip-path="url(#fc1f23e563)"><path fill="#cae8ff" d="M 127.363281 224.808594 C 127.199219 225.136719 127.417969 225.40625 127.691406 225.460938 C 127.90625 225.894531 128.613281 225.679688 128.503906 225.136719 C 128.449219 225.027344 128.449219 224.917969 128.449219 224.808594 C 129.15625 223.777344 129.914062 222.746094 130.730469 221.824219 C 134.695312 217.480469 140.121094 214.601562 145.824219 213.300781 C 152.828125 211.671875 160.15625 212.320312 167.050781 214.058594 C 173.785156 215.742188 180.136719 218.511719 186.707031 220.628906 C 192.894531 222.636719 199.410156 223.996094 205.980469 223.070312 C 211.464844 222.3125 216.621094 219.921875 220.964844 216.503906 C 225.363281 213.082031 228.945312 208.574219 231.226562 203.527344 C 233.671875 198.152344 234.703125 192.125 234.429688 186.261719 C 234.160156 180.289062 232.585938 174.371094 229.597656 169.160156 C 226.667969 164 222.324219 159.820312 217.382812 156.617188 C 212.386719 153.359375 206.6875 150.96875 200.824219 149.828125 C 200.660156 149.777344 200.496094 149.882812 200.386719 149.992188 C 200.226562 150.101562 200.171875 150.320312 200.28125 150.480469 C 200.335938 150.535156 200.386719 150.644531 200.496094 150.644531 C 201.367188 151.351562 202.289062 152 203.15625 152.707031 C 206.902344 155.695312 210.648438 158.898438 213.582031 162.699219 C 216.242188 166.226562 218.195312 170.246094 218.683594 174.640625 C 219.121094 178.660156 218.46875 182.949219 216.078125 186.316406 C 213.636719 189.789062 209.5625 191.636719 205.4375 192.125 C 200.929688 192.667969 196.480469 191.746094 192.300781 190.117188 C 187.464844 188.269531 183.015625 185.609375 178.34375 183.382812 C 173.675781 181.15625 168.734375 179.527344 163.578125 178.824219 C 158.582031 178.171875 153.425781 178.332031 148.59375 179.800781 C 144.464844 180.996094 140.664062 183.113281 137.410156 185.933594 C 134.257812 188.703125 131.707031 192.234375 130.296875 196.25 C 130.1875 196.578125 130.511719 196.902344 130.839844 196.792969 C 135.183594 195.164062 140.015625 194.351562 144.683594 194.839844 C 142.621094 195.492188 140.664062 196.46875 138.820312 197.609375 C 134.476562 200.378906 131 204.449219 128.992188 209.226562 C 126.929688 214.003906 126.386719 219.433594 127.472656 224.59375 C 127.472656 224.644531 127.417969 224.753906 127.363281 224.808594 Z M 131.328125 215.90625 C 131.761719 214.003906 132.414062 212.160156 133.28125 210.367188 C 135.128906 206.621094 137.953125 203.308594 141.425781 200.921875 C 144.953125 198.476562 149.082031 196.957031 153.316406 196.523438 C 153.480469 196.523438 153.585938 196.414062 153.640625 196.304688 C 153.640625 196.304688 153.695312 196.359375 153.695312 196.359375 C 154.128906 196.683594 154.621094 195.925781 154.128906 195.597656 C 152.9375 194.730469 151.6875 194.023438 150.382812 193.375 C 146.3125 191.472656 141.75 190.710938 137.300781 191.203125 C 139.960938 189.410156 142.785156 187.835938 145.714844 186.53125 C 148.808594 185.121094 152.121094 184.035156 155.488281 183.601562 C 159.234375 183.167969 163.035156 183.328125 166.671875 184.25 C 168.519531 184.6875 170.253906 185.335938 171.992188 186.152344 C 173.675781 186.964844 175.25 187.945312 176.769531 188.921875 C 179.59375 190.765625 182.308594 192.777344 185.347656 194.296875 C 185.023438 194.351562 184.644531 194.296875 184.261719 194.1875 C 182.472656 193.808594 180.84375 192.832031 179.214844 192.015625 C 178.398438 191.636719 177.53125 191.203125 176.664062 190.929688 C 175.957031 190.710938 175.195312 190.550781 174.492188 190.660156 C 174.328125 190.660156 174.21875 190.820312 174.164062 191.039062 C 174.109375 191.203125 174.164062 191.417969 174.382812 191.472656 C 175.25 191.851562 176.011719 192.503906 176.664062 193.15625 C 178.128906 194.566406 179.324219 196.195312 180.789062 197.609375 C 181.441406 198.257812 182.199219 198.855469 183.015625 199.292969 C 182.527344 199.292969 182.089844 199.292969 181.601562 199.183594 C 180.625 198.964844 179.703125 198.640625 178.78125 198.3125 C 177.800781 197.988281 176.824219 197.664062 175.792969 197.445312 C 173.730469 196.957031 171.558594 196.628906 169.496094 197.226562 C 169.441406 197.226562 169.386719 197.28125 169.332031 197.335938 C 169.277344 197.390625 169.222656 197.445312 169.167969 197.554688 C 169.117188 197.714844 169.222656 197.988281 169.386719 198.097656 C 169.441406 198.097656 169.496094 198.152344 169.550781 198.152344 C 170.636719 198.3125 171.667969 198.75 172.589844 199.398438 C 173.296875 199.886719 173.894531 200.484375 174.492188 201.136719 C 175.085938 201.84375 175.683594 202.546875 176.390625 203.089844 C 177.367188 203.851562 178.5625 204.394531 179.757812 204.71875 C 179.105469 204.773438 178.507812 204.773438 177.855469 204.71875 C 176.28125 204.558594 174.652344 204.125 173.242188 203.417969 C 172.808594 203.199219 172.375 203.742188 172.699219 204.125 C 173.460938 204.992188 174.164062 205.859375 174.980469 206.675781 C 176.335938 208.085938 177.855469 209.390625 179.539062 210.421875 C 180.789062 211.179688 182.039062 211.886719 183.285156 212.59375 C 179.429688 212.429688 175.578125 211.5625 171.882812 210.53125 C 168.03125 209.445312 164.175781 208.195312 160.210938 207.382812 C 156.300781 206.566406 152.230469 206.1875 148.210938 206.785156 C 144.792969 207.328125 141.535156 208.628906 138.546875 210.367188 C 136.050781 211.832031 133.609375 213.734375 131.328125 215.90625 Z M 131.328125 215.90625 " fill-opacity="1" fill-rule="nonzero"/></g><g fill="#f4f6fc" fill-opacity="1"><g transform="translate(98.46886, 264.176363)"><g><path d="M 0.234375 0 L 11.078125 -27.09375 L 14.71875 -27.09375 L 25.515625 0 L 20.265625 0 L 18.171875 -5.890625 L 7.65625 -5.890625 L 5.546875 0 Z M 9.296875 -10.046875 L 16.53125 -10.046875 L 12.921875 -19.9375 Z M 9.296875 -10.046875 "/></g></g></g><g fill="#f4f6fc" fill-opacity="1"><g transform="translate(124.212629, 264.176363)"><g><path d="M 6.671875 0.390625 C 5.941406 0.390625 5.273438 0.269531 4.671875 0.03125 C 4.066406 -0.195312 3.582031 -0.613281 3.21875 -1.21875 C 2.851562 -1.820312 2.671875 -2.6875 2.671875 -3.8125 L 2.671875 -27.09375 L 7.34375 -27.09375 L 7.34375 -5.09375 C 7.34375 -4.644531 7.476562 -4.316406 7.75 -4.109375 C 8.03125 -3.910156 8.40625 -3.8125 8.875 -3.8125 C 9.019531 -3.8125 9.207031 -3.820312 9.4375 -3.84375 C 9.675781 -3.863281 9.914062 -3.894531 10.15625 -3.9375 L 10.15625 0 C 9.675781 0.09375 9.113281 0.179688 8.46875 0.265625 C 7.832031 0.347656 7.234375 0.390625 6.671875 0.390625 Z M 6.671875 0.390625 "/></g></g></g><g fill="#f4f6fc" fill-opacity="1"><g transform="translate(135.196381, 264.176363)"><g><path d="M 10.75 0.390625 C 9.101562 0.390625 7.671875 0.117188 6.453125 -0.421875 C 5.242188 -0.960938 4.234375 -1.695312 3.421875 -2.625 C 2.617188 -3.5625 2.019531 -4.617188 1.625 -5.796875 C 1.238281 -6.984375 1.046875 -8.222656 1.046875 -9.515625 C 1.046875 -10.765625 1.234375 -11.984375 1.609375 -13.171875 C 1.984375 -14.359375 2.550781 -15.429688 3.3125 -16.390625 C 4.082031 -17.359375 5.054688 -18.128906 6.234375 -18.703125 C 7.421875 -19.273438 8.828125 -19.5625 10.453125 -19.5625 C 11.796875 -19.5625 12.960938 -19.363281 13.953125 -18.96875 C 14.941406 -18.582031 15.78125 -18.054688 16.46875 -17.390625 C 17.15625 -16.722656 17.707031 -15.96875 18.125 -15.125 C 18.550781 -14.289062 18.859375 -13.421875 19.046875 -12.515625 C 19.234375 -11.617188 19.328125 -10.742188 19.328125 -9.890625 C 19.328125 -9.492188 19.3125 -9.125 19.28125 -8.78125 C 19.25 -8.4375 19.207031 -8.191406 19.15625 -8.046875 L 6 -8.046875 C 6.144531 -7.222656 6.398438 -6.492188 6.765625 -5.859375 C 7.128906 -5.222656 7.640625 -4.726562 8.296875 -4.375 C 8.960938 -4.03125 9.796875 -3.859375 10.796875 -3.859375 C 11.660156 -3.859375 12.476562 -4.007812 13.25 -4.3125 C 14.019531 -4.625 14.734375 -5.148438 15.390625 -5.890625 L 18.609375 -3.0625 C 17.566406 -1.90625 16.398438 -1.039062 15.109375 -0.46875 C 13.816406 0.101562 12.363281 0.390625 10.75 0.390625 Z M 6 -11.421875 L 14.71875 -11.421875 C 14.570312 -12.796875 14.117188 -13.835938 13.359375 -14.546875 C 12.609375 -15.265625 11.625 -15.625 10.40625 -15.625 C 9.488281 -15.625 8.734375 -15.441406 8.140625 -15.078125 C 7.546875 -14.710938 7.078125 -14.210938 6.734375 -13.578125 C 6.398438 -12.953125 6.15625 -12.234375 6 -11.421875 Z M 6 -11.421875 "/></g></g></g><g fill="#f4f6fc" fill-opacity="1"><g transform="translate(155.649547, 264.176363)"><g><path d="M 0.1875 0 L 6.75 -9.65625 L 0.1875 -19.15625 L 5.890625 -19.15625 L 9.859375 -12.84375 L 13.828125 -19.15625 L 19.5625 -19.15625 L 12.953125 -9.65625 L 19.5625 0 L 13.828125 0 L 9.859375 -6.4375 L 5.890625 0 Z M 0.1875 0 "/></g></g></g><g fill="#f4f6fc" fill-opacity="1"><g transform="translate(175.393465, 264.176363)"><g><path d="M 8.015625 0.390625 C 6.710938 0.390625 5.53125 0.144531 4.46875 -0.34375 C 3.414062 -0.832031 2.582031 -1.546875 1.96875 -2.484375 C 1.351562 -3.421875 1.046875 -4.554688 1.046875 -5.890625 C 1.046875 -6.921875 1.238281 -7.789062 1.625 -8.5 C 2.019531 -9.207031 2.5625 -9.773438 3.25 -10.203125 C 3.945312 -10.640625 4.757812 -10.953125 5.6875 -11.140625 C 6.613281 -11.328125 7.613281 -11.421875 8.6875 -11.421875 L 13.671875 -11.421875 C 13.671875 -12.640625 13.347656 -13.617188 12.703125 -14.359375 C 12.066406 -15.097656 11.128906 -15.46875 9.890625 -15.46875 C 9.160156 -15.46875 8.503906 -15.335938 7.921875 -15.078125 C 7.347656 -14.828125 6.851562 -14.5 6.4375 -14.09375 C 6.019531 -13.6875 5.671875 -13.242188 5.390625 -12.765625 L 1.796875 -15.359375 C 2.410156 -16.203125 3.097656 -16.9375 3.859375 -17.5625 C 4.628906 -18.1875 5.503906 -18.675781 6.484375 -19.03125 C 7.472656 -19.382812 8.597656 -19.5625 9.859375 -19.5625 C 11.597656 -19.5625 13.082031 -19.222656 14.3125 -18.546875 C 15.539062 -17.878906 16.484375 -16.945312 17.140625 -15.75 C 17.804688 -14.550781 18.140625 -13.175781 18.140625 -11.625 L 18.140625 0 L 14.28125 0 L 13.984375 -2.734375 C 13.160156 -1.535156 12.242188 -0.710938 11.234375 -0.265625 C 10.222656 0.171875 9.148438 0.390625 8.015625 0.390625 Z M 8.6875 -3.5625 C 9.351562 -3.5625 9.984375 -3.679688 10.578125 -3.921875 C 11.171875 -4.160156 11.691406 -4.488281 12.140625 -4.90625 C 12.597656 -5.332031 12.960938 -5.8125 13.234375 -6.34375 C 13.515625 -6.882812 13.660156 -7.453125 13.671875 -8.046875 L 8.953125 -8.046875 C 7.890625 -8.046875 7.101562 -7.8125 6.59375 -7.34375 C 6.09375 -6.875 5.84375 -6.335938 5.84375 -5.734375 C 5.84375 -5.109375 6.085938 -4.585938 6.578125 -4.171875 C 7.078125 -3.765625 7.78125 -3.5625 8.6875 -3.5625 Z M 8.6875 -3.5625 "/></g></g></g><g fill="#f4f6fc" fill-opacity="1"><g transform="translate(195.731617, 264.176363)"><g><path d="M 2.78125 0 L 2.78125 -19.15625 L 7.421875 -19.15625 L 7.421875 -16.921875 C 7.929688 -17.554688 8.503906 -18.0625 9.140625 -18.4375 C 9.785156 -18.820312 10.445312 -19.101562 11.125 -19.28125 C 11.800781 -19.46875 12.453125 -19.5625 13.078125 -19.5625 C 14.328125 -19.5625 15.390625 -19.332031 16.265625 -18.875 C 17.148438 -18.414062 17.867188 -17.800781 18.421875 -17.03125 C 18.972656 -16.257812 19.375 -15.394531 19.625 -14.4375 C 19.882812 -13.476562 20.015625 -12.5 20.015625 -11.5 L 20.015625 0 L 15.390625 0 L 15.390625 -10.90625 C 15.390625 -11.75 15.253906 -12.492188 14.984375 -13.140625 C 14.710938 -13.796875 14.300781 -14.3125 13.75 -14.6875 C 13.207031 -15.0625 12.535156 -15.25 11.734375 -15.25 C 10.421875 -15.25 9.375 -14.875 8.59375 -14.125 C 7.8125 -13.375 7.421875 -12.160156 7.421875 -10.484375 L 7.421875 0 Z M 2.78125 0 "/></g></g></g><g fill="#f4f6fc" fill-opacity="1"><g transform="translate(217.986655, 264.176363)"><g><path d="M 14.875 -27.09375 L 19.640625 -27.09375 L 19.640625 0 L 15.28125 0 L 15.0625 -2.140625 C 14.40625 -1.253906 13.578125 -0.609375 12.578125 -0.203125 C 11.585938 0.191406 10.566406 0.390625 9.515625 0.390625 C 8.171875 0.390625 6.976562 0.125 5.9375 -0.40625 C 4.90625 -0.9375 4.035156 -1.664062 3.328125 -2.59375 C 2.628906 -3.519531 2.097656 -4.582031 1.734375 -5.78125 C 1.378906 -6.976562 1.203125 -8.25 1.203125 -9.59375 C 1.203125 -10.914062 1.378906 -12.175781 1.734375 -13.375 C 2.097656 -14.570312 2.628906 -15.632812 3.328125 -16.5625 C 4.023438 -17.488281 4.882812 -18.21875 5.90625 -18.75 C 6.925781 -19.289062 8.101562 -19.5625 9.4375 -19.5625 C 10.425781 -19.5625 11.410156 -19.378906 12.390625 -19.015625 C 13.378906 -18.660156 14.207031 -18.066406 14.875 -17.234375 Z M 10.640625 -3.859375 C 11.710938 -3.859375 12.585938 -4.109375 13.265625 -4.609375 C 13.953125 -5.117188 14.457031 -5.800781 14.78125 -6.65625 C 15.113281 -7.519531 15.28125 -8.5 15.28125 -9.59375 C 15.28125 -10.664062 15.113281 -11.628906 14.78125 -12.484375 C 14.457031 -13.347656 13.953125 -14.035156 13.265625 -14.546875 C 12.585938 -15.054688 11.710938 -15.3125 10.640625 -15.3125 C 9.566406 -15.3125 8.679688 -15.054688 7.984375 -14.546875 C 7.296875 -14.035156 6.785156 -13.34375 6.453125 -12.46875 C 6.128906 -11.601562 5.96875 -10.644531 5.96875 -9.59375 C 5.96875 -8.507812 6.128906 -7.535156 6.453125 -6.671875 C 6.785156 -5.804688 7.296875 -5.117188 7.984375 -4.609375 C 8.679688 -4.109375 9.566406 -3.859375 10.640625 -3.859375 Z M 10.640625 -3.859375 "/></g></g></g><g fill="#f4f6fc" fill-opacity="1"><g transform="translate(240.433381, 264.176363)"><g><path d="M 10.75 0.390625 C 9.101562 0.390625 7.671875 0.117188 6.453125 -0.421875 C 5.242188 -0.960938 4.234375 -1.695312 3.421875 -2.625 C 2.617188 -3.5625 2.019531 -4.617188 1.625 -5.796875 C 1.238281 -6.984375 1.046875 -8.222656 1.046875 -9.515625 C 1.046875 -10.765625 1.234375 -11.984375 1.609375 -13.171875 C 1.984375 -14.359375 2.550781 -15.429688 3.3125 -16.390625 C 4.082031 -17.359375 5.054688 -18.128906 6.234375 -18.703125 C 7.421875 -19.273438 8.828125 -19.5625 10.453125 -19.5625 C 11.796875 -19.5625 12.960938 -19.363281 13.953125 -18.96875 C 14.941406 -18.582031 15.78125 -18.054688 16.46875 -17.390625 C 17.15625 -16.722656 17.707031 -15.96875 18.125 -15.125 C 18.550781 -14.289062 18.859375 -13.421875 19.046875 -12.515625 C 19.234375 -11.617188 19.328125 -10.742188 19.328125 -9.890625 C 19.328125 -9.492188 19.3125 -9.125 19.28125 -8.78125 C 19.25 -8.4375 19.207031 -8.191406 19.15625 -8.046875 L 6 -8.046875 C 6.144531 -7.222656 6.398438 -6.492188 6.765625 -5.859375 C 7.128906 -5.222656 7.640625 -4.726562 8.296875 -4.375 C 8.960938 -4.03125 9.796875 -3.859375 10.796875 -3.859375 C 11.660156 -3.859375 12.476562 -4.007812 13.25 -4.3125 C 14.019531 -4.625 14.734375 -5.148438 15.390625 -5.890625 L 18.609375 -3.0625 C 17.566406 -1.90625 16.398438 -1.039062 15.109375 -0.46875 C 13.816406 0.101562 12.363281 0.390625 10.75 0.390625 Z M 6 -11.421875 L 14.71875 -11.421875 C 14.570312 -12.796875 14.117188 -13.835938 13.359375 -14.546875 C 12.609375 -15.265625 11.625 -15.625 10.40625 -15.625 C 9.488281 -15.625 8.734375 -15.441406 8.140625 -15.078125 C 7.546875 -14.710938 7.078125 -14.210938 6.734375 -13.578125 C 6.398438 -12.953125 6.15625 -12.234375 6 -11.421875 Z M 6 -11.421875 "/></g></g></g><g fill="#f4f6fc" fill-opacity="1"><g transform="translate(260.886547, 264.176363)"><g><path d="M 2.78125 0 L 2.78125 -19.15625 L 7.34375 -19.15625 L 7.34375 -15.9375 C 7.625 -16.71875 8.03125 -17.375 8.5625 -17.90625 C 9.09375 -18.445312 9.695312 -18.859375 10.375 -19.140625 C 11.0625 -19.421875 11.765625 -19.5625 12.484375 -19.5625 C 13.117188 -19.5625 13.742188 -19.445312 14.359375 -19.21875 C 14.984375 -19 15.523438 -18.648438 15.984375 -18.171875 L 13.859375 -14.34375 C 13.210938 -14.78125 12.515625 -15 11.765625 -15 C 11.222656 -15 10.6875 -14.863281 10.15625 -14.59375 C 9.625 -14.332031 9.144531 -13.921875 8.71875 -13.359375 C 8.289062 -12.804688 7.945312 -12.09375 7.6875 -11.21875 C 7.4375 -10.34375 7.3125 -9.300781 7.3125 -8.09375 L 7.3125 0 Z M 2.78125 0 "/></g></g></g><g fill="#f4f6fc" fill-opacity="1"><g transform="translate(160.402949, 279.19214)"><g><path d="M 3.53125 0.125 C 3.03125 0.125 2.585938 0.03125 2.203125 -0.15625 C 1.828125 -0.34375 1.507812 -0.597656 1.25 -0.921875 C 1 -1.242188 0.8125 -1.609375 0.6875 -2.015625 C 0.5625 -2.429688 0.5 -2.863281 0.5 -3.3125 C 0.5 -3.75 0.5625 -4.171875 0.6875 -4.578125 C 0.8125 -4.992188 1 -5.363281 1.25 -5.6875 C 1.5 -6.019531 1.8125 -6.28125 2.1875 -6.46875 C 2.570312 -6.664062 3.019531 -6.765625 3.53125 -6.765625 C 4.15625 -6.765625 4.703125 -6.601562 5.171875 -6.28125 C 5.640625 -5.96875 5.992188 -5.515625 6.234375 -4.921875 L 5.03125 -4.421875 C 4.925781 -4.785156 4.738281 -5.078125 4.46875 -5.296875 C 4.207031 -5.523438 3.894531 -5.640625 3.53125 -5.640625 C 3.207031 -5.640625 2.9375 -5.566406 2.71875 -5.421875 C 2.507812 -5.285156 2.335938 -5.101562 2.203125 -4.875 C 2.066406 -4.65625 1.96875 -4.40625 1.90625 -4.125 C 1.84375 -3.851562 1.8125 -3.582031 1.8125 -3.3125 C 1.8125 -3.03125 1.835938 -2.753906 1.890625 -2.484375 C 1.953125 -2.210938 2.050781 -1.960938 2.1875 -1.734375 C 2.320312 -1.515625 2.5 -1.335938 2.71875 -1.203125 C 2.9375 -1.066406 3.207031 -1 3.53125 -1 C 3.894531 -1 4.207031 -1.109375 4.46875 -1.328125 C 4.738281 -1.546875 4.925781 -1.832031 5.03125 -2.1875 L 6.171875 -1.71875 C 5.960938 -1.132812 5.628906 -0.679688 5.171875 -0.359375 C 4.710938 -0.0351562 4.164062 0.125 3.53125 0.125 Z M 3.53125 0.125 "/></g></g></g><g fill="#f4f6fc" fill-opacity="1"><g transform="translate(166.960871, 279.19214)"><g><path d="M 3.71875 0.125 C 3.226562 0.125 2.78125 0.0351562 2.375 -0.140625 C 1.976562 -0.316406 1.632812 -0.566406 1.34375 -0.890625 C 1.0625 -1.210938 0.84375 -1.582031 0.6875 -2 C 0.53125 -2.414062 0.453125 -2.859375 0.453125 -3.328125 C 0.453125 -3.796875 0.53125 -4.238281 0.6875 -4.65625 C 0.84375 -5.070312 1.0625 -5.4375 1.34375 -5.75 C 1.632812 -6.070312 1.976562 -6.320312 2.375 -6.5 C 2.78125 -6.675781 3.226562 -6.765625 3.71875 -6.765625 C 4.207031 -6.765625 4.648438 -6.675781 5.046875 -6.5 C 5.453125 -6.320312 5.796875 -6.070312 6.078125 -5.75 C 6.367188 -5.4375 6.59375 -5.070312 6.75 -4.65625 C 6.90625 -4.238281 6.984375 -3.796875 6.984375 -3.328125 C 6.984375 -2.859375 6.90625 -2.414062 6.75 -2 C 6.59375 -1.582031 6.367188 -1.210938 6.078125 -0.890625 C 5.796875 -0.566406 5.453125 -0.316406 5.046875 -0.140625 C 4.648438 0.0351562 4.207031 0.125 3.71875 0.125 Z M 3.71875 -0.953125 C 4.0625 -0.953125 4.351562 -1.019531 4.59375 -1.15625 C 4.84375 -1.289062 5.046875 -1.46875 5.203125 -1.6875 C 5.359375 -1.914062 5.472656 -2.171875 5.546875 -2.453125 C 5.617188 -2.734375 5.65625 -3.023438 5.65625 -3.328125 C 5.65625 -3.640625 5.617188 -3.929688 5.546875 -4.203125 C 5.472656 -4.484375 5.359375 -4.734375 5.203125 -4.953125 C 5.046875 -5.179688 4.84375 -5.359375 4.59375 -5.484375 C 4.351562 -5.609375 4.0625 -5.671875 3.71875 -5.671875 C 3.382812 -5.671875 3.09375 -5.609375 2.84375 -5.484375 C 2.601562 -5.359375 2.40625 -5.179688 2.25 -4.953125 C 2.09375 -4.734375 1.972656 -4.484375 1.890625 -4.203125 C 1.816406 -3.929688 1.78125 -3.640625 1.78125 -3.328125 C 1.78125 -3.023438 1.816406 -2.734375 1.890625 -2.453125 C 1.972656 -2.171875 2.09375 -1.914062 2.25 -1.6875 C 2.40625 -1.457031 2.601562 -1.273438 2.84375 -1.140625 C 3.09375 -1.015625 3.382812 -0.953125 3.71875 -0.953125 Z M 3.71875 -0.953125 "/></g></g></g><g fill="#f4f6fc" fill-opacity="1"><g transform="translate(174.414865, 279.19214)"><g><path d="M 1.046875 0 L 1.046875 -6.625 L 2.34375 -6.625 L 2.34375 -5.765625 C 2.519531 -6.078125 2.765625 -6.320312 3.078125 -6.5 C 3.390625 -6.675781 3.726562 -6.765625 4.09375 -6.765625 C 4.53125 -6.765625 4.914062 -6.660156 5.25 -6.453125 C 5.582031 -6.242188 5.847656 -5.921875 6.046875 -5.484375 C 6.273438 -5.910156 6.570312 -6.226562 6.9375 -6.4375 C 7.3125 -6.65625 7.722656 -6.765625 8.171875 -6.765625 C 8.585938 -6.765625 8.941406 -6.6875 9.234375 -6.53125 C 9.535156 -6.382812 9.78125 -6.179688 9.96875 -5.921875 C 10.164062 -5.671875 10.3125 -5.378906 10.40625 -5.046875 C 10.5 -4.710938 10.546875 -4.367188 10.546875 -4.015625 L 10.546875 0 L 9.234375 0 L 9.234375 -3.859375 C 9.234375 -4.078125 9.210938 -4.289062 9.171875 -4.5 C 9.140625 -4.707031 9.078125 -4.894531 8.984375 -5.0625 C 8.890625 -5.226562 8.757812 -5.359375 8.59375 -5.453125 C 8.4375 -5.554688 8.234375 -5.609375 7.984375 -5.609375 C 7.734375 -5.609375 7.507812 -5.554688 7.3125 -5.453125 C 7.125 -5.347656 6.960938 -5.203125 6.828125 -5.015625 C 6.703125 -4.828125 6.601562 -4.613281 6.53125 -4.375 C 6.46875 -4.144531 6.4375 -3.90625 6.4375 -3.65625 L 6.4375 0 L 5.125 0 L 5.125 -3.890625 C 5.125 -4.097656 5.109375 -4.304688 5.078125 -4.515625 C 5.046875 -4.722656 4.984375 -4.910156 4.890625 -5.078125 C 4.796875 -5.242188 4.664062 -5.375 4.5 -5.46875 C 4.34375 -5.5625 4.140625 -5.609375 3.890625 -5.609375 C 3.648438 -5.609375 3.429688 -5.550781 3.234375 -5.4375 C 3.046875 -5.320312 2.882812 -5.164062 2.75 -4.96875 C 2.613281 -4.769531 2.507812 -4.546875 2.4375 -4.296875 C 2.375 -4.054688 2.34375 -3.804688 2.34375 -3.546875 L 2.34375 0 Z M 1.046875 0 "/></g></g></g><g fill="#f4f6fc" fill-opacity="1"><g transform="translate(185.824853, 279.19214)"><g><path d="M 1.0625 2.90625 L 1.0625 -6.625 L 2.359375 -6.625 L 2.359375 -5.84375 C 2.578125 -6.144531 2.851562 -6.375 3.1875 -6.53125 C 3.53125 -6.6875 3.90625 -6.765625 4.3125 -6.765625 C 4.757812 -6.765625 5.15625 -6.671875 5.5 -6.484375 C 5.851562 -6.304688 6.144531 -6.054688 6.375 -5.734375 C 6.613281 -5.421875 6.789062 -5.054688 6.90625 -4.640625 C 7.03125 -4.222656 7.09375 -3.78125 7.09375 -3.3125 C 7.09375 -2.851562 7.03125 -2.414062 6.90625 -2 C 6.789062 -1.582031 6.613281 -1.210938 6.375 -0.890625 C 6.144531 -0.578125 5.859375 -0.328125 5.515625 -0.140625 C 5.171875 0.0351562 4.773438 0.125 4.328125 0.125 C 3.929688 0.125 3.5625 0.0507812 3.21875 -0.09375 C 2.875 -0.25 2.585938 -0.484375 2.359375 -0.796875 L 2.359375 2.90625 Z M 4.015625 -1.015625 C 4.316406 -1.015625 4.578125 -1.070312 4.796875 -1.1875 C 5.023438 -1.3125 5.210938 -1.484375 5.359375 -1.703125 C 5.503906 -1.921875 5.609375 -2.164062 5.671875 -2.4375 C 5.742188 -2.71875 5.78125 -3.007812 5.78125 -3.3125 C 5.78125 -3.625 5.742188 -3.921875 5.671875 -4.203125 C 5.609375 -4.484375 5.503906 -4.726562 5.359375 -4.9375 C 5.210938 -5.15625 5.023438 -5.328125 4.796875 -5.453125 C 4.578125 -5.578125 4.316406 -5.640625 4.015625 -5.640625 C 3.703125 -5.640625 3.429688 -5.578125 3.203125 -5.453125 C 2.984375 -5.328125 2.800781 -5.15625 2.65625 -4.9375 C 2.507812 -4.726562 2.398438 -4.484375 2.328125 -4.203125 C 2.265625 -3.921875 2.234375 -3.625 2.234375 -3.3125 C 2.234375 -3.007812 2.265625 -2.71875 2.328125 -2.4375 C 2.398438 -2.164062 2.507812 -1.921875 2.65625 -1.703125 C 2.800781 -1.484375 2.984375 -1.3125 3.203125 -1.1875 C 3.429688 -1.070312 3.703125 -1.015625 4.015625 -1.015625 Z M 4.015625 -1.015625 "/></g></g></g><g fill="#f4f6fc" fill-opacity="1"><g transform="translate(193.451424, 279.19214)"><g><path d="M 2.71875 0.125 C 2.28125 0.125 1.890625 0.046875 1.546875 -0.109375 C 1.203125 -0.273438 0.929688 -0.507812 0.734375 -0.8125 C 0.535156 -1.125 0.4375 -1.5 0.4375 -1.9375 C 0.4375 -2.394531 0.550781 -2.765625 0.78125 -3.046875 C 1.007812 -3.335938 1.332031 -3.546875 1.75 -3.671875 C 2.175781 -3.804688 2.671875 -3.875 3.234375 -3.875 L 4.84375 -3.875 C 4.84375 -4.226562 4.789062 -4.535156 4.6875 -4.796875 C 4.59375 -5.066406 4.4375 -5.273438 4.21875 -5.421875 C 4 -5.578125 3.710938 -5.65625 3.359375 -5.65625 C 3.078125 -5.65625 2.828125 -5.601562 2.609375 -5.5 C 2.390625 -5.40625 2.203125 -5.285156 2.046875 -5.140625 C 1.890625 -4.992188 1.757812 -4.835938 1.65625 -4.671875 L 0.703125 -5.390625 C 1.003906 -5.816406 1.367188 -6.148438 1.796875 -6.390625 C 2.222656 -6.640625 2.734375 -6.765625 3.328125 -6.765625 C 3.910156 -6.765625 4.40625 -6.648438 4.8125 -6.421875 C 5.21875 -6.191406 5.523438 -5.875 5.734375 -5.46875 C 5.941406 -5.0625 6.046875 -4.585938 6.046875 -4.046875 L 6.046875 0 L 4.984375 0 L 4.921875 -1.125 C 4.660156 -0.664062 4.332031 -0.34375 3.9375 -0.15625 C 3.550781 0.03125 3.144531 0.125 2.71875 0.125 Z M 2.875 -0.953125 C 3.164062 -0.953125 3.429688 -1.007812 3.671875 -1.125 C 3.910156 -1.238281 4.113281 -1.390625 4.28125 -1.578125 C 4.457031 -1.765625 4.59375 -1.972656 4.6875 -2.203125 C 4.789062 -2.441406 4.84375 -2.679688 4.84375 -2.921875 L 3.328125 -2.921875 C 2.804688 -2.921875 2.414062 -2.832031 2.15625 -2.65625 C 1.894531 -2.476562 1.765625 -2.222656 1.765625 -1.890625 C 1.765625 -1.585938 1.867188 -1.351562 2.078125 -1.1875 C 2.285156 -1.03125 2.550781 -0.953125 2.875 -0.953125 Z M 2.875 -0.953125 "/></g></g></g><g fill="#f4f6fc" fill-opacity="1"><g transform="translate(200.367775, 279.19214)"><g><path d="M 1.046875 0 L 1.046875 -6.625 L 2.328125 -6.625 L 2.328125 -5.65625 C 2.566406 -6.007812 2.863281 -6.28125 3.21875 -6.46875 C 3.582031 -6.65625 3.96875 -6.75 4.375 -6.75 C 4.78125 -6.75 5.128906 -6.675781 5.421875 -6.53125 C 5.722656 -6.382812 5.960938 -6.179688 6.140625 -5.921875 C 6.328125 -5.660156 6.460938 -5.363281 6.546875 -5.03125 C 6.640625 -4.707031 6.6875 -4.367188 6.6875 -4.015625 L 6.6875 0 L 5.40625 0 L 5.40625 -3.859375 C 5.40625 -4.078125 5.378906 -4.289062 5.328125 -4.5 C 5.273438 -4.707031 5.191406 -4.894531 5.078125 -5.0625 C 4.972656 -5.226562 4.832031 -5.359375 4.65625 -5.453125 C 4.476562 -5.554688 4.265625 -5.609375 4.015625 -5.609375 C 3.691406 -5.609375 3.398438 -5.53125 3.140625 -5.375 C 2.890625 -5.226562 2.691406 -5 2.546875 -4.6875 C 2.398438 -4.382812 2.328125 -4 2.328125 -3.53125 L 2.328125 0 Z M 1.046875 0 "/></g></g></g><g fill="#f4f6fc" fill-opacity="1"><g transform="translate(207.927971, 279.19214)"><g><path d="M 1.5 2.859375 L 2.671875 -0.09375 L 0.109375 -6.625 L 1.515625 -6.625 L 3.34375 -1.59375 L 5.140625 -6.625 L 6.546875 -6.625 L 2.875 2.859375 Z M 1.5 2.859375 "/></g></g></g></svg>